<?xml version="1.0" encoding="UTF-8" standalone="no"?>
<svg
   xmlns:dc="http://purl.org/dc/elements/1.1/"
   xmlns:cc="http://creativecommons.org/ns#"
   xmlns:rdf="http://www.w3.org/1999/02/22-rdf-syntax-ns#"
   xmlns:svg="http://www.w3.org/2000/svg"
   xmlns="http://www.w3.org/2000/svg"
   viewBox="0 0 219.14667 212.42667"
   height="212.42667"
   width="219.14667"
   xml:space="preserve"
   id="svg2"
   version="1.1"><metadata
     id="metadata8"><rdf:RDF><cc:Work
         rdf:about=""><dc:format>image/svg+xml</dc:format><dc:type
           rdf:resource="http://purl.org/dc/dcmitype/StillImage" /></cc:Work></rdf:RDF></metadata><defs
     id="defs6" /><g
     transform="matrix(1.3333333,0,0,-1.3333333,0,212.42667)"
     id="g10"><g
       transform="scale(0.1)"
       id="g12"><path
         id="path14"
         style="fill:#fbc707;fill-opacity:1;fill-rule:nonzero;stroke:none"
         d="m 1562.73,1430.39 c -45.26,0 -80.85,34.9 -80.85,79.47 0,44.56 36.28,79.8 80.85,79.8 44.91,0 80.84,-34.55 80.84,-79.8 0,-44.22 -36.62,-79.47 -80.84,-79.47 z m 0,134.05 c -30.06,0 -54.24,-24.19 -54.24,-54.24 0,-29.72 24.18,-54.58 54.24,-54.58 29.71,0 53.9,24.18 53.9,54.24 0,29.7 -24.19,54.58 -53.9,54.58 z m 7.94,-92.59 -13.13,29.36 h -2.42 v -29.36 h -20.72 v 77.04 h 32.13 c 19,0 27.29,-8.64 27.29,-21.41 0,-12.1 -6.22,-19 -15.54,-21.77 1.72,-2.07 3.8,-5.19 5.87,-9.33 l 11.4,-24.53 z m -10.02,61.15 h -5.53 v -17.62 h 3.8 c 8.3,0 12.1,4.14 12.1,9.33 0,5.53 -3.11,8.29 -10.37,8.29" /><path
         id="path16"
         style="fill:#fbc707;fill-opacity:1;fill-rule:nonzero;stroke:none"
         d="M 235.793,659.328 V 928.164 H 161.684 V 830.188 H 81.2656 v 97.976 H 7.16406 V 659.328 H 81.2656 V 765.324 H 161.684 V 659.328 h 74.109" /><path
         id="path18"
         style="fill:#fbc707;fill-opacity:1;fill-rule:evenodd;stroke:none"
         d="M 526.93,659.328 434.902,928.164 H 350.051 L 262.438,659.328 h 73.285 l 13.55,43.848 h 82.832 l 13.942,-43.848 z M 413.793,761.352 h -46.992 l 13.125,42.98 c 4,13.547 7.199,26.246 9.605,38.234 h 0.746 c 2.418,-11.988 6.004,-24.687 9.973,-37.843 l 13.543,-43.371" /><path
         id="path20"
         style="fill:#fbc707;fill-opacity:1;fill-rule:evenodd;stroke:none"
         d="m 770.625,659.328 -47.391,82.09 c -5.957,10.352 -12.343,20.32 -19.472,31.07 30.234,11.141 48.172,41.805 48.172,73.66 0,59.739 -38.27,84.043 -106.778,84.043 -33.843,0 -66.929,-0.39 -92.011,-2.027 V 659.328 h 74.136 v 97.981 h 3.551 l 49.766,-97.981 z m -96.766,181.223 c 0,-19.875 -13.906,-30.621 -34.269,-30.621 -3.981,0 -9.547,0.383 -12.309,0.785 v 57.715 c 2.371,0.461 9.121,0.781 13.903,0.781 24.304,0 32.675,-12.699 32.675,-28.66" /><path
         id="path22"
         style="fill:#fbc707;fill-opacity:1;fill-rule:nonzero;stroke:none"
         d="m 964.141,864.453 v 63.711 H 773.789 v -63.711 h 58.137 V 659.328 h 74.109 v 205.125 h 58.106" /><path
         id="path24"
         style="fill:#fbc707;fill-opacity:1;fill-rule:nonzero;stroke:none"
         d="m 1001.61,659.328 h 74 v 268.836 h -74 z" /><path
         id="path26"
         style="fill:#fbc707;fill-opacity:1;fill-rule:nonzero;stroke:none"
         d="m 1366.35,659.328 v 268.836 h -71.27 V 834.23 c 0,-16.804 0.78,-37.46 2.81,-55.746 -9.18,21.481 -21.12,45.778 -32.71,69.688 l -39.02,79.992 h -94.8 V 659.328 h 71.35 v 109.965 c 0,17.523 -0.45,26.656 -2.03,42.594 6.79,-17.903 16.37,-39.399 26.72,-60.508 l 44.95,-92.051 h 94" /><path
         id="path28"
         style="fill:#fbc707;fill-opacity:1;fill-rule:nonzero;stroke:none"
         d="m 1633.19,673.277 v 132.614 h -74.07 v -81.618 c -3.98,-1.16 -9.58,-1.949 -15.19,-1.949 -45.79,0 -65.72,27.43 -65.72,69.25 0,43.438 23.9,74.055 72.9,74.055 26.7,0 61.1,-3.981 79.4,-11.145 v 67.688 c -19.47,5.992 -46.32,10.43 -76.61,10.43 -95.56,0 -156.15,-58.957 -156.15,-146.168 0,-80.461 48.2,-131.852 138.63,-131.852 36.6,0 70.88,7.164 96.81,18.695" /><path
         id="path30"
         style="fill:#fbc707;fill-opacity:1;fill-rule:nonzero;stroke:none"
         d="m 0,1322.36 c 0,0 322.074,269.96 818.027,270.87 500.963,0.98 822.263,-270.87 822.263,-270.87 l 0.06,-295.17 c 0,0 -321.43,213.61 -822.401,214.45 C 318.434,1242.5 0.128906,1027.19 0.128906,1027.19 L 0,1322.36" /><path
         id="path32"
         style="fill:#fbc707;fill-opacity:1;fill-rule:nonzero;stroke:none"
         d="M 0,270.871 C 0,270.871 322.074,0.910156 818.027,0 1318.99,-0.980469 1640.29,270.871 1640.29,270.871 l 0.06,294.59 c 0,0 -321.43,-213.039 -822.401,-213.813 C 318.434,350.738 0.128906,565.461 0.128906,565.461 L 0,270.871" /></g></g></svg>